<?xml version="1.0" encoding="UTF-8"?><svg id="Layer_1" xmlns="http://www.w3.org/2000/svg" viewBox="0 0 188.06 129.75"><defs><style>.cls-1{fill:#fff;}</style></defs><path class="cls-1" d="M19.34.12l148.69-.12c6.51.79,12.96,4.55,16.33,10.22,1.71,2.89,2.77,5.69.92,8.85-28.33,22.9-58.3,43.97-87.19,66.26-4.29,2.4-6.24.99-9.81-1.37C59.99,65.24,33.48,40.8,5.29,21.6-4.61,13.28,10.55.82,19.34.12ZM167.81,14.41H20.34l73.9,55.83L167.81,14.41Z"/><path class="cls-1" d="M6.28,43.35c4.09-.66,7.61,1.61,8.55,5.63l.15,60.22c.35,2.58,2.46,5.15,4.99,5.81l146.29.33c3.64-.11,6.6-2.93,6.95-6.55l.11-59.81c2.11-8.22,13.53-7.52,14.3,1.22-1.12,19.22,1.43,40.01,0,59.05-.82,11-9.06,19.42-20.03,20.47l-146.59.02c-10.45-.61-19.47-9.09-20.43-19.62-1.76-19.17,1.3-40.92,0-60.36.23-3.03,2.75-5.94,5.73-6.42Z"/></svg>