<?xml version="1.0" encoding="UTF-8"?>
<svg id="Layer_1" xmlns="http://www.w3.org/2000/svg" version="1.1" viewBox="0 0 188.1 158.8">
  <!-- Generator: Adobe Illustrator 29.1.0, SVG Export Plug-In . SVG Version: 2.1.0 Build 142)  -->
  <defs>
    <style>
      .st0 {
        fill: #fff;
      }
    </style>
  </defs>
  <path class="st0" d="M19.3,20.7h148.7c6.5.7,13,4.4,16.3,10.1,1.7,2.9,2.8,5.7.9,8.8-28.3,22.9-58.3,44-87.2,66.3-4.3,2.4-6.2,1-9.8-1.4C60,85.8,33.5,61.3,5.3,42.1c-9.9-8.3,5.3-20.8,14.1-21.5ZM167.8,34.9H20.3l73.9,55.8,73.6-55.8Z"/>
  <path class="st0" d="M6.3,63.9c4.1-.7,7.6,1.6,8.5,5.6v60.2c.5,2.6,2.6,5.2,5.1,5.8l146.3.3c3.6-.1,6.6-2.9,6.9-6.6v-59.8c2.2-8.2,13.6-7.5,14.4,1.2-1.1,19.2,1.4,40,0,59-.8,11-9.1,19.4-20,20.5H21c-10.4-.6-19.5-9.1-20.4-19.6-1.8-19.2,1.3-40.9,0-60.4.2-3,2.8-5.9,5.7-6.4h0Z"/>
</svg>