<?xml version="1.0" encoding="UTF-8"?><svg id="Layer_1" xmlns="http://www.w3.org/2000/svg" viewBox="0 0 50.42 34.82"><defs><style>.cls-1{fill:#fff;}</style></defs><path class="cls-1" d="M42.71,10.44l-.24.3c-5.42,3.55-10.54,8.56-15.96,11.97-1,.63-1.72.79-2.74,0L.98,5.61C-1.19,3.39,2.8.11,5.02,0h40.36c2.18.18,6.07,3.42,3.93,5.61-1.63,1.67-4.75,3.29-6.59,4.83ZM44.85,3.87H5.44l19.65,14.88L44.85,3.87Z"/><path class="cls-1" d="M1.89,11.64c.69-.02,1.89.74,1.98,1.48.03.22-.11.42-.1.59.33,4.94-.24,10.11.09,14.99.1,1.45.73,2.2,2.24,2.24h38.09c1.29-.02,2.1-.71,2.23-2v-15.83c.63-2.1,3.39-2.03,3.87.11-.32,5.3.42,11.08,0,16.33-.21,2.7-2.46,4.97-5.14,5.25H5.25c-2.7-.24-4.85-2.36-5.25-5.02V13.12c.08-.47.72-1.28,1.18-1.38.16-.03.32.05.45.04.1-.01.19-.14.26-.14Z"/></svg>