<?xml version="1.0" encoding="UTF-8"?>
<svg xmlns="http://www.w3.org/2000/svg" version="1.1" viewBox="0 0 170.5 170.6">
  <!-- Generator: Adobe Illustrator 29.1.0, SVG Export Plug-In . SVG Version: 2.1.0 Build 142)  -->
  <defs>
    <style>
      .st0 {
        fill: #fff;
      }

      .st1 {
        stroke: #000;
        stroke-miterlimit: 10;
      }
    </style>
  </defs>
  <g id="Layer_2">
    <rect class="st1" y="0" width="170.5" height="170.5"/>
  </g>
  <g id="Layer_1">
    <path class="st0" d="M50.7.6c22.3.8,45.9-1.4,68.1-.1,27.1,1.6,49.6,23.9,51.3,51,1.4,21.8-1,45.1,0,67.1-1.5,27.3-23.6,50-51,51.7-21.8,1.4-45.1-1-67.1,0-27.7-1.5-49.9-23.8-51.7-51.3,1-22-1.3-45.2,0-67.1C2,24.9,23.9,2.5,50.7.6ZM51.5,12.7C30.4,14.3,13.9,31.6,12.5,52.5c1.1,21.6-1.4,44.5,0,65.9,1.4,21,18.6,38.2,39.6,39.6,21,1.4,44.6-1.1,66.3,0,21.1-1.6,38-18.4,39.6-39.6-1.1-21.7,1.4-44.8,0-66.3s-18.8-38.3-39.9-39.6c-21.7-1.3-44.8.9-66.6.1h0Z"/>
    <path class="st0" d="M81.4,43c35.9-3,59.2,36.8,38.6,66.7-10.8,15.8-35.4,23.7-52.7,14.2-7-3.8-3-12.9,3.9-11.5,1.6.3,3.8,1.6,5.8,2.2,27.8,7.1,49-23.8,32.4-47.1-18.3-25.5-59.5-8.8-54.4,22.9.8,5,2.8,7.1,4.2,11.3,2,5.9-4.1,10.7-9.1,7.2-4-2.8-7-15.1-7.4-19.9-1.6-23.1,15.3-43.9,38.6-45.9Z"/>
    <path class="st0" d="M129.1,30.8c12.4-2,14.5,16.6,2.9,18-12,1.5-14.1-16.3-2.9-18Z"/>
  </g>
</svg>