<?xml version="1.0" encoding="UTF-8"?><svg id="Layer_1" xmlns="http://www.w3.org/2000/svg" viewBox="0 0 170.53 170.55"><defs><style>.cls-1{fill:#fff;}</style></defs><path class="cls-1" d="M50.71.55c22.34.78,45.87-1.42,68.08-.13,27.1,1.58,49.59,23.85,51.3,50.96,1.38,21.84-1.04,45.06.02,67.05-1.48,27.29-23.61,49.95-50.96,51.68-21.84,1.38-45.06-1.04-67.05.02-27.67-1.5-49.9-23.76-51.7-51.32,1-22.04-1.28-45.16,0-67.07C1.97,24.85,23.85,2.52,50.71.55ZM51.47,12.67C30.44,14.32,13.89,31.56,12.52,52.5c1.09,21.57-1.41,44.5.02,65.92,1.4,20.98,18.6,38.18,39.58,39.58s44.59-1.06,66.27,0c21.13-1.56,38.02-18.45,39.58-39.58-1.06-21.69,1.43-44.75,0-66.27s-18.78-38.29-39.94-39.6c-21.65-1.34-44.76.94-66.56.13Z"/><path class="cls-1" d="M81.39,42.97c35.94-3.05,59.16,36.83,38.64,66.67-10.84,15.76-35.4,23.68-52.72,14.23-6.95-3.79-3-12.94,3.95-11.53,1.64.33,3.8,1.64,5.8,2.15,27.76,7.09,49.02-23.84,32.37-47.14-18.26-25.54-59.52-8.85-54.37,22.93.81,5.02,2.79,7.11,4.24,11.29,2.04,5.89-4.08,10.74-9.08,7.19-4.02-2.85-7.05-15.06-7.38-19.89-1.59-23.08,15.29-43.93,38.55-45.9Z"/><path class="cls-1" d="M129.09,30.83c12.4-1.97,14.52,16.59,2.91,18.05-11.97,1.51-14.11-16.28-2.91-18.05Z"/></svg>