<?xml version="1.0" encoding="UTF-8"?><svg id="Layer_1" xmlns="http://www.w3.org/2000/svg" viewBox="0 0 178.87 178.87"><defs><style>.cls-1{fill:#fff;}</style></defs><path class="cls-1" d="M12.55.11l152.8-.11c7.4.53,12.94,6.13,13.52,13.52v151.83c-.58,7.32-6.15,13.03-13.52,13.52H13.52c-7.35-.58-12.98-6.16-13.52-13.52V13.52C.56,6.51,5.59,1.06,12.55.11ZM12.91,5.88c-4.16.77-6.78,3.8-7.14,8.01v151.11c.41,4.72,3.7,7.95,8.47,8.12h150.75c4.72-.41,7.95-3.71,8.12-8.47V13.88c-.4-4.63-3.48-7.71-8.12-8.11l-152.08.11Z"/><path class="cls-1" d="M96.29,71.77c4.64-3.96,10.07-7.07,16.15-8.19,17.71-3.26,34.93,4.34,37.21,23.52,2.25,18.92-.94,40.64.38,59.87-.03,2.08-1.08,2.89-3.06,3.06-5.04.46-15.18.46-20.23,0-2.4-.22-2.85-1.12-3.06-3.43-1.4-15.02.91-32.29.03-47.62-.36-6.31-1.8-12.91-9.58-12.81-12.26.16-13.15,12.16-13.53,21.47-.51,12.65,1.16,27,.03,39.33-.17,1.85-.77,2.83-2.71,3.06-8.02-.57-17.01.73-24.9,0-2.53-.23-2.77-1.44-3.06-3.79l.17-79.19c.48-1.75,1.53-2.36,3.25-2.52,4.7-.42,15.63-.52,20.22,0,.94.11,2.7,1.04,2.7,1.99v5.23ZM144.24,144.24c-.22-18.78.48-37.64-.4-56.39-2.18-21.14-29.2-24.18-43.23-12.31-1.42,1.2-5.46,6.22-6.47,6.53-1.55.47-3.98-.97-3.98-2.56v-9.19h-14.42v73.92h18.75c.32-11.58-.42-23.24-.01-34.81.38-10.83.83-23.58,12.9-27.85,12.7-4.49,21.8,4.03,21.75,16.67l-.02,45.99h15.14Z"/><path class="cls-1" d="M54.36,65.38c.49.49.84,1.86.84,2.58l-.18,79.91c-.32,1.33-1.14,2.07-2.54,2.15l-21.57-.09c-1.36-.39-2.14-1.55-2.08-2.97l.09-80.35c.39-1.51,1.58-1.9,2.99-2.06,4.39-.49,15.81-.5,20.2-.01.6.07,1.83.43,2.23.83ZM49.41,70.32h-14.78v73.92h14.78v-73.92Z"/><path class="cls-1" d="M39.95,29.31c20.45-2.81,20.06,28.22-.29,24.99-14.32-2.27-14.13-23.01.29-24.99ZM40.66,34.72c-2.51.42-5.33,2.74-5.87,5.3-1.75,8.2,10.55,11.76,14.1,4.37,2.64-5.51-2.62-10.6-8.23-9.66Z"/></svg>