<?xml version="1.0" encoding="UTF-8"?>
<svg xmlns="http://www.w3.org/2000/svg" version="1.1" viewBox="0 0 178.9 178.9">
  <!-- Generator: Adobe Illustrator 29.1.0, SVG Export Plug-In . SVG Version: 2.1.0 Build 142)  -->
  <defs>
    <style>
      .st0 {
        fill: #050000;
        stroke: #000;
        stroke-miterlimit: 10;
      }

      .st1 {
        fill: #fff;
      }
    </style>
  </defs>
  <g id="Layer_2">
    <rect class="st0" width="178.9" height="178.9"/>
  </g>
  <g id="Layer_1">
    <path class="st1" d="M12.6.1h152.8c7.4.4,12.9,6,13.5,13.4v151.8c-.6,7.3-6.1,13-13.5,13.5H13.5c-7.3-.6-13-6.2-13.5-13.5V13.5C.6,6.5,5.6,1.1,12.6.1ZM12.9,5.9c-4.2.8-6.8,3.8-7.1,8v151.1c.4,4.7,3.7,7.9,8.5,8.1h150.8c4.7-.4,7.9-3.7,8.1-8.5V13.9c-.4-4.6-3.5-7.7-8.1-8.1,0,0-152.1.1-152.1.1Z"/>
    <path class="st1" d="M96.3,71.8c4.6-4,10.1-7.1,16.2-8.2,17.7-3.3,34.9,4.3,37.2,23.5,2.2,18.9-.9,40.6.4,59.9,0,2.1-1.1,2.9-3.1,3.1-5,.5-15.2.5-20.2,0-2.4-.2-2.8-1.1-3.1-3.4-1.4-15,.9-32.3,0-47.6-.4-6.3-1.8-12.9-9.6-12.8-12.3.2-13.2,12.2-13.5,21.5-.5,12.7,1.2,27,0,39.3-.2,1.9-.8,2.8-2.7,3.1-8-.6-17,.7-24.9,0-2.5-.2-2.8-1.4-3.1-3.8l.2-79.2c.5-1.8,1.5-2.4,3.2-2.5,4.7-.4,15.6-.5,20.2,0,.9.1,2.7,1,2.7,2v5.2h0ZM144.2,144.2c-.2-18.8.5-37.6-.4-56.4-2.2-21.1-29.2-24.2-43.2-12.3-1.4,1.2-5.5,6.2-6.5,6.5-1.6.5-4-1-4-2.6v-9.2h-14.4v73.9h18.8c.3-11.6-.4-23.2,0-34.8.4-10.8.8-23.6,12.9-27.8,12.7-4.5,21.8,4,21.7,16.7v46s15.1,0,15.1,0h0Z"/>
    <path class="st1" d="M54.4,65.4c.5.5.8,1.9.8,2.6l-.2,79.9c-.3,1.3-1.1,2.1-2.5,2.1h-21.6c-1.4-.5-2.1-1.6-2.1-3.1v-80.3c.5-1.5,1.7-1.9,3.1-2.1,4.4-.5,15.8-.5,20.2,0,.6,0,1.8.4,2.2.8h0ZM49.4,70.3h-14.8v73.9h14.8s0-73.9,0-73.9Z"/>
    <path class="st1" d="M40,29.3c20.5-2.8,20.1,28.2-.3,25-14.3-2.3-14.1-23,.3-25ZM40.7,34.7c-2.5.4-5.3,2.7-5.9,5.3-1.8,8.2,10.5,11.8,14.1,4.4,2.6-5.5-2.6-10.6-8.2-9.7h0Z"/>
  </g>
</svg>